PathFileType	4	(X/Y/Z)	/Users/itak/Documents/Research/Walk-IL/dataset/trc/00540_00009.trc
DataRate	CameraRate	NumFrames	NumMarkers	Units	OrigDataRate	OrigDataStartFrame	OrigNumFrames
100.000000	100.000000	4	53	mm	100.000000	513	684
Frame#	Time	RPSI			LPSI			L3			STRN			T10			C7			CLAV			RBAK			LBAK			LSHO			LUPA			LAEL			LAOL			LWTS			LWPS			LFRA			LIFD			LHPS			LHTS			RSHO			RUPA			RAEL			RAOL			RWTS			RWPS			RFRA			RIFD			RHTS			RHPS			RBHD			LFHD			RFHD			LBHD			LHIP			RHIP			RASI			LASI			LKNE			LTHI			LANK			LTIP			LTOE			LMT1			LMT5			LHEE			RKNE			RTHI			RANK			RTIP			RTOE			RMT1			RMT5			RHEE			
		X1	Y1	Z1	X2	Y2	Z2	X3	Y3	Z3	X4	Y4	Z4	X5	Y5	Z5	X6	Y6	Z6	X7	Y7	Z7	X8	Y8	Z8	X9	Y9	Z9	X10	Y10	Z10	X11	Y11	Z11	X12	Y12	Z12	X13	Y13	Z13	X14	Y14	Z14	X15	Y15	Z15	X16	Y16	Z16	X17	Y17	Z17	X18	Y18	Z18	X19	Y19	Z19	X20	Y20	Z20	X21	Y21	Z21	X22	Y22	Z22	X23	Y23	Z23	X24	Y24	Z24	X25	Y25	Z25	X26	Y26	Z26	X27	Y27	Z27	X28	Y28	Z28	X29	Y29	Z29	X30	Y30	Z30	X31	Y31	Z31	X32	Y32	Z32	X33	Y33	Z33	X34	Y34	Z34	X35	Y35	Z35	X36	Y36	Z36	X37	Y37	Z37	X38	Y38	Z38	X39	Y39	Z39	X40	Y40	Z40	X41	Y41	Z41	X42	Y42	Z42	X43	Y43	Z43	X44	Y44	Z44	X45	Y45	Z45	X46	Y46	Z46	X47	Y47	Z47	X48	Y48	Z48	X49	Y49	Z49	X50	Y50	Z50	X51	Y51	Z51	X52	Y52	Z52	X53	Y53	Z53	

514	5.13	962.3818969726562	1019.896423339844	423.4598693847656	970.8248291015625	1021.701599121094	290.2166137695312	974.4203491210938	1114.753173828125	354.2902221679688	1208.792114257812	1294.323364257812	355.182373046875	966.0357055664062	1239.57568359375	352.7529907226562	1020.21728515625	1511.173217773438	370.3629150390625	1191.104614257812	1405.570556640625	356.14013671875	947.2490234375	1388.247802734375	456.8908081054688	984.5713500976562	1460.6904296875	276.8572387695312	1082.61328125	1483.303466796875	196.4084014892578	1071.705688476562	1359.834228515625	112.8414993286133	1094.033325195312	1140.123901367188	83.23908996582031	1007.676818847656	1125.962768554688	134.2539367675781	1214.892700195312	911.6673583984375	122.6999588012695	1168.675537109375	882.0651245117188	54.63102722167969	1124.62109375	1057.286743164062	74.18843841552734	1237.33544921875	742.7184448242188	117.5545120239258	1186.650024414062	824.169921875	61.83545684814453	1240.478637695312	837.850341796875	101.2398910522461	1082.0234375	1469.293579101562	523.8887939453125	1062.192016601562	1405.358032226562	591.3868408203125	1041.428955078125	1118.183349609375	638.6220703125	989.0761108398438	1100.8427734375	605.6810913085938	1180.522705078125	900.4889526367188	624.0498657226562	1127.673950195312	880.8782958984375	683.639892578125	1049.530639648438	1063.081909179688	648.8233642578125	1195.640869140625	727.8740844726562	633.2930297851562	1208.91552734375	810.2896728515625	645.2322998046875	1147.346313476562	807.5164184570312	686.8782348632812	1120.281127929688	1693.14892578125	434.4329833984375	1278.314453125	1693.067260742188	299.0342102050781	1261.379028320312	1694.767700195312	443.8277282714844	1147.158325195312	1688.786376953125	271.6410217285156	1103.461669921875	945.4987182617188	165.2616424560547	1074.839477539062	946.0602416992188	553.4053955078125	1166.904418945312	971.8787231445312	501.9227905273438	1179.517456054688	964.671142578125	226.8217620849609	1195.245727539062	502.8523254394531	234.2223815917969	1168.292724609375	665.7525024414062	192.8579559326172	1169.867309570312	33.95352172851562	254.2968292236328	1164.515014648438	252.1968688964844	240.2026977539062	1378.628784179688	40.38241577148438	321.1522827148438	1305.121215820312	45.33939743041992	351.1929016113281	1291.711303710938	35.59446716308594	243.755615234375	1101.03955078125	38.46813201904297	307.76611328125	1061.473754882812	503.31640625	539.2149047851562	1105.503051757812	790.95849609375	554.5918579101562	732.8540649414062	140.774169921875	526.3230590820312	989.8925170898438	373.2389526367188	532.041015625	911.578857421875	37.23382949829102	474.5553283691406	862.3969116210938	70.37525939941406	437.5094299316406	834.1883544921875	56.73965835571289	536.6773681640625	691.917236328125	179.6954650878906	471.66259765625	
515	5.14	965.7776489257812	1020.141906738281	422.1083374023438	974.3887329101562	1022.005065917969	288.8475036621094	977.9627685546875	1115.022583007812	352.8190612792969	1212.549438476562	1294.660888671875	353.5782470703125	969.721435546875	1239.890625	351.0802612304688	1023.941284179688	1511.476318359375	368.47412109375	1194.861083984375	1405.92822265625	354.4732666015625	950.9566040039062	1388.617309570312	455.0376892089844	988.5634765625	1461.061279296875	274.7409057617188	1086.5947265625	1483.649047851562	194.6768341064453	1076.387084960938	1360.27783203125	110.9421539306641	1100.169067382812	1140.75634765625	81.20167541503906	1013.55615234375	1125.90283203125	131.8161926269531	1222.514404296875	913.2255859375	121.0723571777344	1176.893432617188	883.3380737304688	52.71903610229492	1131.4091796875	1058.172241210938	72.22875213623047	1246.378295898438	744.5087890625	115.6868515014648	1195.29931640625	825.5897827148438	59.92369079589844	1248.785034179688	839.6329345703125	99.64076232910156	1085.621948242188	1469.734008789062	522.0545654296875	1065.955322265625	1405.819458007812	589.5927124023438	1046.066040039062	1118.584716796875	636.8333129882812	993.7653198242188	1100.926879882812	604.06884765625	1187.008422851562	902.1858520507812	621.8968505859375	1134.421752929688	881.9994506835938	681.49755859375	1054.615966796875	1063.52978515625	646.9884643554688	1203.87353515625	729.7316284179688	630.95654296875	1216.338989257812	812.2940673828125	642.956787109375	1154.828735351562	808.83837890625	684.6394653320312	1124.01318359375	1693.557373046875	432.5430908203125	1282.271484375	1693.241333007812	297.3704833984375	1265.135620117188	1695.086791992188	442.1751708984375	1151.16845703125	1689.071411132812	269.7748413085938	1106.522583007812	945.905517578125	163.5816497802734	1078.450073242188	946.406005859375	552.0635375976562	1170.505493164062	972.4935913085938	500.5140380859375	1183.111694335938	964.8494873046875	225.4226684570312	1197.079956054688	502.7041015625	233.5296936035156	1170.926147460938	665.768310546875	192.4139556884766	1169.884643554688	33.93379211425781	254.2641754150391	1165.361450195312	252.1060333251953	239.787353515625	1378.645263671875	40.28990173339844	321.2185974121094	1305.151123046875	45.33352661132812	351.2936096191406	1291.713745117188	35.56879043579102	243.7225952148438	1101.05224609375	38.50585556030273	307.7315063476562	1070.787353515625	503.2661437988281	539.1563720703125	1110.64794921875	791.4630126953125	553.4050903320312	737.0755004882812	145.6479949951172	526.794677734375	998.1309204101562	373.7640380859375	532.030029296875	913.7443237304688	36.95941543579102	474.9645080566406	865.1941528320312	72.29710388183594	437.8919067382812	836.6321411132812	59.68183135986328	537.0035400390625	697.0005493164062	185.3511657714844	472.171630859375	
516	5.15	969.0554809570312	1020.347106933594	420.8020935058594	977.8248901367188	1022.230163574219	287.515380859375	981.4090576171875	1115.270263671875	351.4035034179688	1216.187377929688	1294.970581054688	352.0433654785156	973.2930297851562	1240.195434570312	349.4615173339844	1027.558715820312	1511.749633789062	366.632568359375	1198.513916015625	1406.25244140625	352.8788452148438	954.5487670898438	1388.99560546875	453.2228393554688	992.4674072265625	1461.421264648438	272.6486206054688	1090.51220703125	1483.961791992188	192.9974670410156	1081.027099609375	1360.688354492188	109.0926666259766	1106.25048828125	1141.365234375	79.203125	1019.380249023438	1125.834594726562	129.4178619384766	1229.94921875	914.6871948242188	119.4773254394531	1184.916137695312	884.5601806640625	50.82701110839844	1138.10009765625	1059.019775390625	70.30413818359375	1255.11572265625	746.1859130859375	113.8624038696289	1203.712036132812	826.947998046875	58.0339469909668	1256.864501953125	841.3108520507812	98.06110382080078	1089.120483398438	1470.155517578125	520.2549438476562	1069.592529296875	1406.27197265625	587.830810546875	1050.547973632812	1119.001098632812	635.10693359375	998.2875366210938	1101.012084960938	602.55078125	1193.401733398438	903.9583740234375	619.6925659179688	1141.120361328125	883.1721801757812	679.3286743164062	1059.583862304688	1063.99365234375	645.1987915039062	1212.070190429688	731.6815185546875	628.5307006835938	1223.716552734375	814.3994140625	640.5694580078125	1162.286499023438	810.2269897460938	682.3422241210938	1127.649047851562	1693.933227539062	430.693115234375	1286.129516601562	1693.3818359375	295.7380676269531	1268.805297851562	1695.377197265625	440.5562133789062	1155.076538085938	1689.31787109375	267.9493408203125	1109.825073242188	946.03271484375	162.10888671875	1082.057006835938	946.7427368164062	550.7676391601562	1173.978637695312	973.0978393554688	499.1914367675781	1186.595458984375	965.0139770507812	224.0979919433594	1198.770874023438	502.55859375	232.9083862304688	1173.4375	665.7752075195312	192.0455780029297	1169.903442382812	33.92025375366211	254.2492980957031	1166.149169921875	252.0265197753906	239.4063568115234	1378.665161132812	40.20496368408203	321.2720031738281	1305.175048828125	45.33163070678711	351.3910217285156	1291.716186523438	35.55676651000977	243.7093658447266	1101.066162109375	38.5450553894043	307.6991882324219	1080.050903320312	503.2442932128906	538.9990844726562	1115.631591796875	791.9638061523438	552.3070678710938	741.5556640625	150.4341735839844	527.16015625	1006.373229980469	374.288818359375	531.857177734375	916.3834228515625	36.80048751831055	475.5411987304688	868.4117431640625	74.288818359375	438.3550415039062	839.5001831054688	62.86858749389648	537.4255981445312	702.2696533203125	190.7076110839844	472.5142211914062	
517	5.16	972.252197265625	1020.502807617188	419.5497436523438	981.1403198242188	1022.368408203125	286.2180786132812	984.7813720703125	1115.489501953125	350.0492858886719	1219.707763671875	1295.252685546875	350.578857421875	976.7518310546875	1240.473266601562	347.8933715820312	1031.064819335938	1511.990600585938	364.8416748046875	1202.060180664062	1406.542236328125	351.36376953125	958.0205688476562	1389.37060546875	451.4481506347656	996.2576904296875	1461.744873046875	270.6115417480469	1094.36083984375	1484.235595703125	191.3710174560547	1085.616333007812	1361.05859375	107.2982482910156	1112.26513671875	1141.944702148438	77.23709869384766	1025.134399414062	1125.754638671875	127.052116394043	1237.18603515625	916.0479736328125	117.9172592163086	1192.734375	885.7242431640625	48.96282577514648	1144.67626953125	1059.822265625	68.41770172119141	1263.551513671875	747.7477416992188	112.091926574707	1211.883666992188	828.2369384765625	56.17452239990234	1264.710693359375	842.8839111328125	96.51197814941406	1092.512817382812	1470.554931640625	518.4939575195312	1073.088500976562	1406.705444335938	586.10498046875	1054.86767578125	1119.421752929688	633.4463500976562	1002.637573242188	1101.093017578125	601.1263427734375	1199.68603515625	905.8005981445312	617.4413452148438	1147.753662109375	884.3917236328125	677.1375122070312	1064.428833007812	1064.470092773438	643.4609375	1220.205444335938	733.7177124023438	626.0203857421875	1231.02099609375	816.59130859375	638.0806884765625	1169.69873046875	811.6773071289062	679.993408203125	1131.1943359375	1694.281494140625	428.8858032226562	1289.888916015625	1693.486572265625	294.1393432617188	1272.390869140625	1695.637817382812	438.971435546875	1158.881591796875	1689.52587890625	266.168212890625	1113.292236328125	945.9061279296875	160.8118896484375	1085.658569335938	947.0640258789062	549.5239868164062	1177.35107421875	973.6813354492188	497.9408264160156	1189.965087890625	965.163818359375	222.8421936035156	1200.31103515625	502.4153442382812	232.3547515869141	1175.836059570312	665.7753295898438	191.7425689697266	1169.921508789062	33.90977096557617	254.2507171630859	1166.87255859375	251.9575500488281	239.0532684326172	1378.6865234375	40.13129043579102	321.3110656738281	1305.192016601562	45.33098602294922	351.4868774414062	1291.718139648438	35.55632400512695	243.7114715576172	1101.079956054688	38.58380126953125	307.6695251464844	1089.176513671875	503.2681274414062	538.766357421875	1120.508178710938	792.4598999023438	551.277587890625	746.3045043945312	154.9865417480469	527.371337890625	1014.541625976562	374.8263854980469	531.5592041015625	919.599853515625	36.8538703918457	476.3403930664062	872.15869140625	76.31475830078125	438.9188537597656	842.8718872070312	66.19291687011719	537.9559936523438	707.7161865234375	195.60302734375	472.6261901855469	
